<svg width="68" height="56" viewBox="0 0 68 56" fill="none" xmlns="http://www.w3.org/2000/svg">
  <defs>
    <linearGradient id="icon-m-blue" x1="0%" y1="0%" x2="100%" y2="100%">
      <stop offset="0%" stopColor="#7E96FC" />
      <stop offset="100%" stopColor="#5B73EA" />
    </linearGradient>
    <linearGradient id="icon-m-purple" x1="0%" y1="0%" x2="100%" y2="100%">
      <stop offset="0%" stopColor="#C4A5FA" />
      <stop offset="100%" stopColor="#9F78EB" />
    </linearGradient>
    <linearGradient id="icon-m-darkblue" x1="0%" y1="0%" x2="100%" y2="100%">
      <stop offset="0%" stopColor="#3C56BE" />
      <stop offset="100%" stopColor="#2F47A9" />
    </linearGradient>
  </defs>

  <!-- Left Base -->
  <path d="M 6 26 C 6 26, 6 42, 6 46 C 6 51.5 10.5 56 16 56 C 21.5 56 26 51.5 26 46 C 26 38 18 30 6 26 Z" fill="url(#icon-m-darkblue)"/>

  <!-- Right Base -->
  <path d="M 38 32 C 38 32, 38 42, 38 46 C 38 51.5 42.5 56 48 56 C 53.5 56 58 51.5 58 46 C 58 36 50 28 38 32 Z" fill="url(#icon-m-darkblue)"/>

  <!-- Left Slanted Capsule -->
  <rect x="3" y="7" width="17" height="44" rx="8.5" transform="rotate(-40 11.5 29)" fill="url(#icon-m-blue)"/>

  <!-- Tech Accent -->
  <g opacity="0.5" stroke="#FFFFFF" stroke-width="1.2" stroke-linecap="round">
    <line x1="16" y1="20" x2="28" y2="34" />
    <circle cx="16" cy="20" r="1.5" fill="#FFFFFF" />
    <circle cx="28" cy="34" r="1.5" fill="#FFFFFF" />
  </g>

  <!-- Right Slanted Capsule -->
  <rect x="38" y="7" width="17" height="34" rx="8.5" transform="rotate(40 46.5 24)" fill="url(#icon-m-purple)"/>

  <!-- Dot -->
  <circle cx="63" cy="46" r="4.5" fill="#B592F2"/>
</svg>
